<svg width="540" height="83" viewBox="0 0 540 83" fill="none" xmlns="http://www.w3.org/2000/svg">
<path d="M47.6855 36.6076C44.7125 29.32 53.6288 8.53372 73.2619 6.98532C94.0883 5.3414 111.086 23.9062 111.086 44.7797C111.086 65.6531 91.99 82.5736 71.1001 82.5736C63.0734 82.5736 51.3217 80.0588 45.2004 75.7964L0.0742188 44.78L28.6996 27.5786C28.6996 27.5786 22.0175 69.2751 58.222 77.6422C65.4075 79.3017 99.8289 77.9123 96.8569 46.0563C96.4431 41.6231 85.7792 11.2332 47.6855 36.6076Z" fill="#15CC93"/>
<path d="M93.7505 46.4275C96.7234 53.7153 87.8065 74.5027 68.1734 76.0505C47.3483 77.6924 30.3496 59.1292 30.3496 38.2553C30.3496 17.3815 49.4446 0.461914 70.3352 0.461914C78.3626 0.461914 90.1136 2.9768 96.2363 7.23893L141.361 38.2553L112.736 55.4592C112.736 55.4592 119.417 13.7621 83.2143 5.39412C76.0295 3.73261 41.6081 5.12407 44.5794 36.9787C44.9932 41.4123 55.6558 71.8035 93.7505 46.4275Z" fill="#134D67"/>
<path d="M270.466 67.5658C270.006 69.6538 269.351 73.4052 268.502 78.8198C264.68 79.6338 261.459 80.1823 258.84 80.4655C256.221 80.7486 253.585 80.8901 250.931 80.8901C246.295 80.8901 242.136 80.4301 238.456 79.5099C234.81 78.5898 231.608 76.9088 228.847 74.4669C226.087 71.9895 224.052 68.9637 222.742 65.3893C221.433 61.8149 220.778 58.0636 220.778 54.1353C220.778 49.7823 221.539 45.5709 223.061 41.501C224.583 37.3958 226.706 34.0514 229.431 31.468C232.192 28.8491 235.324 27.0088 238.827 25.9471C242.331 24.85 245.994 24.3015 249.816 24.3015C253.426 24.3015 256.858 24.7616 260.114 25.6817C263.37 26.5665 266.095 28.0351 268.289 30.0878C270.519 32.1404 272.218 34.6177 273.386 37.5197C274.589 40.3863 275.19 43.5891 275.19 47.1281C275.19 48.7914 275.014 50.5078 274.66 52.2773L235.748 52.3304C235.678 53.6398 235.642 54.6838 235.642 55.4624C235.642 57.8335 236.049 60.01 236.863 61.9919C237.677 63.9737 238.863 65.6547 240.42 67.0349C241.977 68.4152 243.835 69.4415 245.994 70.1139C248.153 70.7509 250.276 71.0694 252.364 71.0694C254.806 71.0694 257.442 70.804 260.274 70.2731C263.14 69.7423 266.538 68.8398 270.466 67.5658ZM236.173 46.1194L261.017 46.1725C261.017 44.4738 260.964 43.2175 260.858 42.4035C260.751 41.5895 260.504 40.6694 260.114 39.6431C259.76 38.5814 259.265 37.6612 258.628 36.8826C257.991 36.0687 257.248 35.3963 256.398 34.8654C255.549 34.3346 254.558 33.9276 253.426 33.6445C252.329 33.3613 251.143 33.2198 249.869 33.2198C248.383 33.2198 246.932 33.4498 245.516 33.9099C244.136 34.37 242.862 35.0424 241.694 35.9271C240.526 36.8119 239.57 37.8028 238.827 38.8999C238.119 39.997 237.589 41.0587 237.235 42.085C236.881 43.0759 236.527 44.4207 236.173 46.1194Z" fill="#434D59"/>
<path d="M283.153 79.6161L284.693 54.4007L285.117 39.7492C285.188 36.7411 285.224 33.7152 285.224 30.6717C285.224 30.1408 285.188 28.4598 285.117 25.6286C288.409 25.6994 290.833 25.7348 292.39 25.7348C294.195 25.7348 296.584 25.6994 299.557 25.6286L299.291 33.1136C300.636 31.2025 301.786 29.7869 302.742 28.8668C303.697 27.9113 304.759 27.0973 305.927 26.4249C307.13 25.7525 308.457 25.2393 309.908 24.8854C311.359 24.5315 312.845 24.3546 314.367 24.3546C315.783 24.3546 317.234 24.5315 318.72 24.8854C318.72 28.1767 318.879 32.3527 319.198 37.4135C317.11 36.8473 315.217 36.5641 313.518 36.5641C311.465 36.5641 309.643 36.8826 308.05 37.5197C306.493 38.1213 305.077 39.0591 303.803 40.3332C302.565 41.5718 301.538 43.1113 300.724 44.9516C300.052 46.438 299.557 48.3667 299.238 50.7378C298.955 52.5781 298.707 55.7278 298.495 60.187C298.318 64.6461 298.229 69.0345 298.229 73.3521C298.229 75.0154 298.282 77.1034 298.389 79.6161C295.699 79.5453 293.239 79.5099 291.01 79.5099C288.816 79.5099 286.197 79.5453 283.153 79.6161Z" fill="#434D59"/>
<path d="M324.029 78.6075L322.861 66.9288C326.329 68.3444 329.266 69.3353 331.673 69.9015C334.08 70.4324 336.291 70.6978 338.309 70.6978C340.326 70.6978 342.025 70.4678 343.405 70.0077C344.785 69.5122 345.811 68.8044 346.484 67.8843C347.156 66.9288 347.492 65.9379 347.492 64.9115C347.492 64.4515 347.439 64.0268 347.333 63.6375C347.262 63.2482 347.103 62.8412 346.855 62.4165C346.643 61.9919 346.378 61.6026 346.059 61.2487C345.776 60.8594 345.369 60.4347 344.838 59.9746C344.307 59.4792 343.546 58.8599 342.555 58.1167L339.689 55.834C336.928 53.6752 334.823 51.9765 333.372 50.7378C331.921 49.4992 330.7 48.2428 329.709 46.9688C328.718 45.6594 327.957 44.2969 327.426 42.8813C326.931 41.4303 326.683 39.9616 326.683 38.4752C326.683 35.8917 327.462 33.4321 329.019 31.0964C330.611 28.7606 332.912 27.0619 335.92 26.0002C338.928 24.9031 342.467 24.3546 346.537 24.3546C351.173 24.3546 356.517 24.9031 362.568 26.0002L363.259 37.095C359.153 35.4317 355.207 34.6 351.421 34.6C349.368 34.6 347.563 34.8123 346.006 35.237C344.484 35.6263 343.387 36.2456 342.715 37.095C342.042 37.909 341.706 38.8291 341.706 39.8554C341.706 40.457 341.812 41.0587 342.025 41.6603C342.237 42.2265 342.609 42.8282 343.139 43.4652C343.67 44.1022 344.272 44.7038 344.944 45.2701C345.652 45.8363 347.103 46.9511 349.297 48.6144C351.491 50.2778 353.402 51.7818 355.03 53.1267C356.694 54.4715 358.056 55.834 359.118 57.2142C360.18 58.559 360.994 60.01 361.56 61.5672C362.126 63.1244 362.409 64.6992 362.409 66.2918C362.409 68.946 361.595 71.4056 359.967 73.6706C358.339 75.9355 355.88 77.705 352.589 78.9791C349.297 80.2531 345.617 80.8901 341.547 80.8901C339.423 80.8901 336.84 80.7132 333.796 80.3593C330.753 80.0408 327.497 79.4568 324.029 78.6075Z" fill="#434D59"/>
<path d="M375.999 16.3918C376.141 12.7466 376.211 9.95084 376.211 8.00439V6.30566C379.432 6.37644 382.051 6.41183 384.068 6.41183C386.828 6.41183 389.394 6.37644 391.765 6.30566C391.659 7.19041 391.588 8.19903 391.553 9.33151L391.287 16.3918C388.598 16.321 386.121 16.2857 383.856 16.2857C381.591 16.2857 378.972 16.321 375.999 16.3918ZM373.132 79.6161C373.663 74.3076 374.035 69.8661 374.247 66.2918C374.601 60.6294 374.902 54.0999 375.15 46.7034C375.433 39.3069 375.627 32.2819 375.734 25.6286C379.202 25.6994 381.803 25.7348 383.537 25.7348C385.13 25.7348 387.713 25.6994 391.287 25.6286C390.792 31.7865 390.385 37.6612 390.067 43.2528C389.783 48.8445 389.571 55.2501 389.43 62.4696C389.288 69.6892 389.217 75.4047 389.217 79.6161C385.997 79.5453 383.413 79.5099 381.467 79.5099C379.626 79.5099 376.848 79.5453 373.132 79.6161Z" fill="#434D59"/>
<path d="M416.609 79.6161C414.273 72.1488 407.992 54.153 397.764 25.6286C400.878 25.6994 403.568 25.7348 405.833 25.7348C408.239 25.7348 410.699 25.6994 413.212 25.6286L425.634 66.1325L427.332 61.5141L439.276 31.2025C439.843 29.7869 440.55 27.929 441.4 25.6286C444.302 25.6994 446.885 25.7348 449.15 25.7348C451.451 25.7348 454.069 25.6994 457.007 25.6286L448.354 44.3676L435.826 72.7681L433.012 79.6161C429.827 79.5453 427.155 79.5099 424.997 79.5099C422.732 79.5099 419.936 79.5453 416.609 79.6161Z" fill="#434D59"/>
<path d="M463.589 16.3918C463.731 12.7466 463.802 9.95084 463.802 8.00439V6.30566C467.022 6.37644 469.641 6.41183 471.658 6.41183C474.419 6.41183 476.984 6.37644 479.356 6.30566C479.249 7.19041 479.179 8.19903 479.143 9.33151L478.878 16.3918C476.188 16.321 473.711 16.2857 471.446 16.2857C469.181 16.2857 466.562 16.321 463.589 16.3918ZM460.723 79.6161C461.254 74.3076 461.625 69.8661 461.838 66.2918C462.191 60.6294 462.492 54.0999 462.74 46.7034C463.023 39.3069 463.218 32.2819 463.324 25.6286C466.792 25.6994 469.393 25.7348 471.127 25.7348C472.72 25.7348 475.303 25.6994 478.878 25.6286C478.382 31.7865 477.975 37.6612 477.657 43.2528C477.374 48.8445 477.161 55.2501 477.02 62.4696C476.878 69.6892 476.807 75.4047 476.807 79.6161C473.587 79.5453 471.004 79.5099 469.057 79.5099C467.217 79.5099 464.439 79.5453 460.723 79.6161Z" fill="#434D59"/>
<path d="M493.795 37.4666C494.29 34.9185 494.591 33.1313 494.697 32.105C494.839 31.0787 495.069 29.5215 495.387 27.4335C500.2 26.301 504.447 25.5048 508.128 25.0447C511.808 24.5846 515.365 24.3546 518.798 24.3546C522.691 24.3546 526.265 24.8146 529.521 25.7348C532.777 26.6195 535.325 28.0528 537.165 30.0347C539.005 32.0165 539.926 34.8654 539.926 38.5814C539.926 40.5986 539.643 45.7478 539.076 54.0291C538.51 62.275 538.174 70.804 538.068 79.6161C535.378 79.5453 532.901 79.5099 530.636 79.5099C528.477 79.5099 525.947 79.5453 523.045 79.6161C523.505 75.3339 523.876 70.3793 524.159 64.7523L524.849 51.5341C523.505 52.4189 522.478 53.0382 521.771 53.3921C521.063 53.746 520.266 54.0822 519.382 54.4007C518.497 54.6838 516.94 55.1439 514.71 55.7809C512.481 56.3825 510.693 56.9134 509.349 57.3735C508.004 57.8335 506.783 58.3644 505.686 58.966C504.624 59.5323 503.722 60.187 502.978 60.9302C502.235 61.638 501.687 62.3989 501.333 63.2128C501.014 63.9914 500.855 64.8408 500.855 65.7609C500.855 67.2473 501.28 68.539 502.129 69.6361C503.014 70.6978 504.111 71.441 505.42 71.8657C506.73 72.2904 508.269 72.5027 510.039 72.5027C511.171 72.5027 512.357 72.4142 513.595 72.2373C514.869 72.0603 516.568 71.618 518.692 70.9102C517.948 72.9274 517.081 75.9355 516.09 79.9346C513.578 80.3593 511.578 80.6247 510.092 80.7309C508.605 80.8371 507.225 80.8901 505.951 80.8901C501.492 80.8901 497.829 80.2885 494.963 79.0853C492.096 77.882 489.973 75.9709 488.592 73.3521C487.248 70.7332 486.575 68.0966 486.575 65.4424C486.575 63.9206 486.841 62.4165 487.371 60.9302C487.902 59.4438 488.681 58.0813 489.707 56.8426C490.733 55.604 492.061 54.4184 493.689 53.2859C495.316 52.1181 497.67 51.0033 500.749 49.9416C503.828 48.8445 507.898 47.7474 512.958 46.6503C514.303 46.3672 515.701 46.031 517.152 45.6417C518.603 45.217 519.753 44.81 520.603 44.4207C521.487 44.0314 522.248 43.536 522.885 42.9343C523.522 42.2973 523.982 41.6426 524.266 40.9702C524.584 40.2978 524.743 39.6077 524.743 38.8999C524.743 37.5197 524.283 36.3518 523.363 35.3963C522.478 34.4407 521.31 33.786 519.859 33.4321C518.444 33.0428 516.869 32.8482 515.135 32.8482C508.694 32.8482 501.581 34.3876 493.795 37.4666Z" fill="#434D59"/>
<path d="M161.965 77.9869L162.961 64.8749L164.344 35.8293L165.008 14.7505C165.045 12.8326 165.063 10.8962 165.063 8.94138C165.063 7.50294 165.045 5.34526 165.008 2.46837C169.729 2.54214 173.565 2.57902 176.515 2.57902C178.876 2.57902 182.158 2.52369 186.363 2.41305C190.568 2.3024 193.906 2.24707 196.377 2.24707C201.467 2.24707 205.21 2.6159 207.608 3.35357C210.153 4.165 212.384 5.43747 214.302 7.17099C216.22 8.9045 217.677 10.9884 218.673 13.4227C219.779 16.1521 220.333 19.0843 220.333 22.2194C220.333 26.9773 219.134 31.3111 216.737 35.2207C214.376 39.0935 211.093 41.9888 206.889 43.9067C202.684 45.8247 198.018 46.7836 192.891 46.7836C190.383 46.7836 187.709 46.5254 184.869 46.0091C184.058 42.1732 183.136 38.5771 182.103 35.2207C184.39 35.7002 186.658 35.9399 188.908 35.9399C191.969 35.9399 194.625 35.4789 196.875 34.5568C199.125 33.6347 200.914 32.141 202.241 30.0755C203.569 27.9732 204.233 25.6126 204.233 22.9939C204.233 21.4448 203.956 20.0248 203.403 18.7339C202.85 17.443 202.039 16.4102 200.969 15.6357C199.936 14.8611 198.774 14.3448 197.483 14.0866C196.229 13.7915 194.422 13.644 192.062 13.644C189.996 13.644 187.912 13.6809 185.81 13.7547C183.708 13.8284 181.845 13.8653 180.222 13.8653C179.779 21.0944 179.448 28.01 179.226 34.6121L178.562 55.7463C178.341 63.2336 178.23 68.7292 178.23 72.2331C178.23 73.5609 178.249 75.4788 178.286 77.9869L170.264 77.8762C169.231 77.8762 166.465 77.9131 161.965 77.9869Z" fill="#434D59"/>
</svg>
